<?xml version="1.0" encoding="UTF-8" standalone="no" ?>
<!DOCTYPE svg PUBLIC "-//W3C//DTD SVG 1.1//EN" "http://www.w3.org/Graphics/SVG/1.1/DTD/svg11.dtd">
<svg xmlns="http://www.w3.org/2000/svg" xmlns:xlink="http://www.w3.org/1999/xlink" version="1.1" width="1080" height="1080" viewBox="0 0 1080 1080" xml:space="preserve">
<desc>Created with Fabric.js 5.2.4</desc>
<defs>
</defs>
<g transform="matrix(1 0 0 1 540 540)" id="c58d0c0c-c784-4582-8c01-ea20a7315884"  >
<rect style="stroke: none; stroke-width: 1; stroke-dasharray: none; stroke-linecap: butt; stroke-dashoffset: 0; stroke-linejoin: miter; stroke-miterlimit: 4; fill: rgb(255,255,255); fill-rule: nonzero; opacity: 1; visibility: hidden;" vector-effect="non-scaling-stroke"  x="-540" y="-540" rx="0" ry="0" width="1080" height="1080" />
</g>
<g transform="matrix(1 0 0 1 540 540)" id="8a52cb7d-7fb0-4b50-8e10-71039dd26c38"  >
</g>
<g transform="matrix(3.56 0 0 3.56 540 540)"  >
<g style=""   >
		<g transform="matrix(1 0 0 1 -6.96 0.08)"  >
<path style="stroke: none; stroke-width: 1; stroke-dasharray: none; stroke-linecap: butt; stroke-dashoffset: 0; stroke-linejoin: miter; stroke-miterlimit: 4; fill: rgb(54,65,71); fill-rule: evenodd; opacity: 1;" vector-effect="non-scaling-stroke"  transform=" translate(-144.54, -86.08)" d="M 229.565 160.229 C 262.212 149.245 286.931 118.241 283.39 73.4194 C 278.009 5.31929 212.365 -11.5738 171.472 8.48673 C 115.998 35.6999 108.972 40.1612 69.2388 40.1612 C 39.645 40.1612 9.51317 54.4147 5.74669 92.952 C 3.01662 120.885 13.9985 145.267 54.6373 157.716 C 128.599 180.373 198.017 170.844 229.565 160.229 Z" stroke-linecap="round" />
</g>
		<g transform="matrix(1 0 0 1 -24.63 -28.81)"  >
<path style="stroke: none; stroke-width: 1; stroke-dasharray: none; stroke-linecap: butt; stroke-dashoffset: 0; stroke-linejoin: miter; stroke-miterlimit: 4; fill: rgb(241,241,242); fill-opacity: 0.38; fill-rule: evenodd; opacity: 1;" vector-effect="non-scaling-stroke"  transform=" translate(-126.88, -57.19)" d="M 131.589 68.9422 C 131.593 68.9422 131.596 68.9422 131.599 68.9422 C 137.86 68.9422 142.935 63.6787 142.935 57.1859 C 142.935 50.6931 137.86 45.4297 131.599 45.4297 C 126.518 45.4297 122.218 48.8958 120.777 53.6723 C 120.022 53.4096 119.213 53.2672 118.373 53.2672 C 114.199 53.2672 110.815 56.7762 110.815 61.1047 C 110.815 65.4332 114.199 68.9422 118.373 68.9422 C 118.377 68.9422 118.381 68.9422 118.386 68.9422 L 131.589 68.9422 Z" stroke-linecap="round" />
</g>
		<g transform="matrix(1 0 0 1 -60.89 30.96)"  >
<path style="stroke: none; stroke-width: 1; stroke-dasharray: none; stroke-linecap: butt; stroke-dashoffset: 0; stroke-linejoin: miter; stroke-miterlimit: 4; fill: rgb(241,241,242); fill-opacity: 0.38; fill-rule: evenodd; opacity: 1;" vector-effect="non-scaling-stroke"  transform=" translate(-90.61, -116.96)" d="M 105.682 128.716 C 109.186 128.716 112.026 125.908 112.026 122.446 C 112.026 118.983 109.186 116.176 105.682 116.176 C 104.526 116.176 103.442 116.481 102.509 117.015 L 102.509 116.959 C 102.509 110.467 97.1831 105.203 90.6129 105.203 C 85.3224 105.203 80.8385 108.616 79.2925 113.335 C 78.6052 113.143 77.88 113.041 77.1304 113.041 C 72.7503 113.041 69.1995 116.55 69.1995 120.878 C 69.1995 125.207 72.7503 128.716 77.1304 128.716 C 77.1341 128.716 77.1379 128.716 77.1416 128.716 L 105.682 128.716 L 105.682 128.716 Z" stroke-linecap="round" />
</g>
		<g transform="matrix(0.99 0.1 -0.1 0.99 -120.61 8.62)"  >
<rect style="stroke: rgb(49,100,116); stroke-width: 1; stroke-dasharray: none; stroke-linecap: butt; stroke-dashoffset: 0; stroke-linejoin: miter; stroke-miterlimit: 4; fill: rgb(66,203,165); fill-rule: nonzero; opacity: 1;" vector-effect="non-scaling-stroke"  x="-25.28985" y="-50.034" rx="7.5" ry="7.5" width="50.5797" height="100.068" />
</g>
		<g transform="matrix(0.99 0.1 -0.1 0.99 -120.31 4.77)"  >
<rect style="stroke: rgb(49,100,116); stroke-width: 1; stroke-dasharray: none; stroke-linecap: butt; stroke-dashoffset: 0; stroke-linejoin: miter; stroke-miterlimit: 4; fill: rgb(238,250,246); fill-rule: nonzero; opacity: 1;" vector-effect="non-scaling-stroke"  x="-25.20135" y="-49.8608" rx="7.5" ry="7.5" width="50.4027" height="99.7216" />
</g>
		<g transform="matrix(1 0 0 1 -120.58 4.44)"  >
<path style="stroke: rgb(49,100,116); stroke-width: 1; stroke-dasharray: none; stroke-linecap: butt; stroke-dashoffset: 0; stroke-linejoin: miter; stroke-miterlimit: 4; fill: rgb(223,243,237); fill-rule: nonzero; opacity: 1;" vector-effect="non-scaling-stroke"  transform=" translate(-30.92, -90.44)" d="M 57.1609 51.7354 L 48.5917 133.759 C 48.2761 136.78 45.5713 138.972 42.5503 138.654 L 9.58089 135.189 C 6.55997 134.871 4.36688 132.165 4.68251 129.144 L 13.2517 47.1204 C 13.5674 44.0992 16.2722 41.9075 19.2931 42.2251 L 24.5519 42.7778 L 47.0037 45.1376 L 52.2625 45.6903 C 55.2835 46.0078 57.4765 48.7143 57.1609 51.7354 Z" stroke-linecap="round" />
</g>
		<g transform="matrix(1 0 0 1 -119.31 9.81)"  >
<path style="stroke: none; stroke-width: 1; stroke-dasharray: none; stroke-linecap: butt; stroke-dashoffset: 0; stroke-linejoin: miter; stroke-miterlimit: 4; fill: rgb(49,100,116); fill-rule: nonzero; opacity: 1;" vector-effect="non-scaling-stroke"  transform=" translate(-32.19, -95.81)" d="M 26.2009 102.937 C 27.0633 103.019 27.9323 103.119 28.8023 103.21 C 29.0402 101.032 29.2706 98.8437 29.4916 96.6638 L 26.8817 96.39 C 26.6438 98.5681 26.4049 100.755 26.2009 102.937 Z M 23.4704 93.3294 L 25.7392 91.4955 L 27.5774 93.7603 L 28.7118 92.8434 L 26.8736 90.5775 L 29.1434 88.7438 L 28.2248 87.6114 L 25.955 89.4452 L 24.1179 87.1806 L 22.9824 88.0974 L 24.8207 90.3621 L 22.5508 92.197 L 23.4704 93.3294 Z M 22.6545 98.6148 C 22.5261 99.9153 22.3893 101.215 22.244 102.514 C 23.1206 102.623 23.9924 102.697 24.8699 102.798 C 25.0164 101.488 25.1451 100.184 25.2831 98.8734 C 24.4047 98.7813 23.5298 98.6551 22.6545 98.6148 Z M 39.502 89.7779 C 38.9965 94.579 38.4833 99.3707 37.9862 104.174 C 38.8656 104.257 39.7337 104.366 40.614 104.441 C 41.1101 99.6473 41.6138 94.8633 42.1271 90.0705 C 41.2625 89.9282 40.3796 89.8786 39.502 89.7779 Z M 35.2378 92.4459 C 34.8492 96.2179 34.4351 99.9873 34.0551 103.76 C 34.925 103.851 35.7959 103.934 36.6564 104.033 C 37.1028 100.121 37.482 96.1922 37.9113 92.2783 C 37.0562 92.1284 36.18 92.0966 35.3221 91.9722 C 35.2812 92.1276 35.253 92.286 35.2378 92.4459 Z M 31.1061 94.1821 C 31.0635 94.341 31.0456 94.511 31.0286 94.6726 C 30.7324 97.5678 30.4115 100.452 30.1238 103.348 L 32.7336 103.622 C 32.8582 102.602 32.9479 101.587 33.0639 100.567 C 33.2611 98.5305 33.5188 96.4921 33.6905 94.4522 C 32.8281 94.3712 31.9666 94.2811 31.1061 94.1821 Z" stroke-linecap="round" />
</g>
		<g transform="matrix(1 0 0 1 -131.96 -37.34)"  >
<path style="stroke: rgb(49,100,116); stroke-width: 1; stroke-dasharray: none; stroke-linecap: butt; stroke-dashoffset: 0; stroke-linejoin: miter; stroke-miterlimit: 4; fill: rgb(255,255,255); fill-rule: nonzero; opacity: 1;" vector-effect="non-scaling-stroke"  transform=" translate(-19.54, -48.66)" d="M 17.892 48.4889 C 17.7988 49.3842 18.4576 50.1945 19.3597 50.2923 C 20.2665 50.3906 21.0855 49.7332 21.1792 48.8333 C 21.2724 47.938 20.6136 47.1277 19.7115 47.0299 C 18.8047 46.9316 17.9857 47.5889 17.892 48.4889 Z" stroke-linecap="round" />
</g>
		<g transform="matrix(1 0 0 1 63.01 46.66)"  >
<path style="stroke: rgb(49,100,116); stroke-width: 1; stroke-dasharray: none; stroke-linecap: butt; stroke-dashoffset: 0; stroke-linejoin: miter; stroke-miterlimit: 4; fill: rgb(255,255,255); fill-rule: nonzero; opacity: 1;" vector-effect="non-scaling-stroke"  transform=" translate(-214.51, -132.66)" d="M 231.807 136.678 L 197.944 139.04 C 197.65 139.06 197.404 139.02 197.249 138.96 C 197.208 138.945 197.179 138.93 197.16 138.918 L 196.456 128.876 C 196.474 128.862 196.5 128.843 196.538 128.822 C 196.683 128.741 196.921 128.668 197.215 128.647 L 231.078 126.285 C 231.372 126.265 231.618 126.305 231.773 126.365 C 231.814 126.381 231.842 126.395 231.861 126.407 L 232.566 136.449 C 232.548 136.463 232.522 136.482 232.484 136.503 C 232.339 136.584 232.101 136.658 231.807 136.678 Z" stroke-linecap="round" />
</g>
		<g transform="matrix(1 0 0 1 59.32 -5.12)"  >
<path style="stroke: none; stroke-width: 1; stroke-dasharray: none; stroke-linecap: butt; stroke-dashoffset: 0; stroke-linejoin: miter; stroke-miterlimit: 4; fill: rgb(238,250,246); fill-rule: nonzero; opacity: 1;" vector-effect="non-scaling-stroke"  transform=" translate(-210.82, -80.88)" d="M 283.734 125.679 L 144.864 135.363 C 141.994 135.563 139.493 133.4 139.293 130.54 L 133.059 41.6349 C 132.858 38.7751 135.031 36.2858 137.903 36.0856 L 276.773 26.4008 C 279.647 26.2005 282.144 28.364 282.345 31.2238 L 288.578 120.129 C 288.779 122.989 286.607 125.478 283.734 125.679 Z" stroke-linecap="round" />
</g>
		<g transform="matrix(1 0 0 1 59.32 -5.12)"  >
<path style="stroke: rgb(49,100,116); stroke-width: 1; stroke-dasharray: none; stroke-linecap: butt; stroke-dashoffset: 0; stroke-linejoin: miter; stroke-miterlimit: 4; fill: none; fill-rule: nonzero; opacity: 1;" vector-effect="non-scaling-stroke"  transform=" translate(-210.82, -80.88)" d="M 144.864 135.363 C 141.994 135.563 139.493 133.4 139.293 130.54 L 133.059 41.6349 C 132.858 38.7751 135.031 36.2858 137.903 36.0856 L 276.773 26.4008 C 279.647 26.2004 282.144 28.364 282.345 31.2238 L 288.578 120.129 C 288.779 122.989 286.607 125.478 283.734 125.679" stroke-linecap="round" />
</g>
		<g transform="matrix(1 0 0 1 58.99 -4.71)"  >
<path style="stroke: rgb(49,100,116); stroke-width: 1; stroke-dasharray: none; stroke-linecap: butt; stroke-dashoffset: 0; stroke-linejoin: miter; stroke-miterlimit: 4; fill: rgb(223,243,237); fill-rule: nonzero; opacity: 1;" vector-effect="non-scaling-stroke"  transform=" translate(-210.49, -81.29)" d="M 278.565 121.405 L 148.68 130.463 C 146.256 130.632 144.174 128.861 144.012 126.55 L 138.343 45.695 C 138.181 43.3846 139.994 41.3414 142.419 41.1723 L 272.304 32.1142 C 274.731 31.945 276.81 33.7166 276.972 36.0271 L 282.641 116.882 C 282.803 119.193 280.992 121.236 278.565 121.405 Z" stroke-linecap="round" />
</g>
		<g transform="matrix(1 0 0 1 63.42 49.31)"  >
<path style="stroke: rgb(49,100,116); stroke-width: 1; stroke-dasharray: none; stroke-linecap: butt; stroke-dashoffset: 0; stroke-linejoin: miter; stroke-miterlimit: 4; fill: rgb(66,203,165); fill-rule: nonzero; opacity: 1;" vector-effect="non-scaling-stroke"  transform=" translate(-214.92, -135.31)" d="M 230.198 129.97 L 298.691 125.193 L 299.111 131.189 C 299.166 131.97 299.013 132.667 298.748 133.161 C 298.478 133.661 298.137 133.887 297.825 133.909 L 132.794 145.418 C 132.482 145.44 132.113 145.263 131.777 144.805 C 131.445 144.353 131.196 143.684 131.141 142.903 L 130.721 136.907 L 199.215 132.131 C 199.476 132.921 199.867 133.614 200.357 134.129 C 200.929 134.729 201.665 135.115 202.482 135.058 L 227.371 133.322 C 228.188 133.265 228.862 132.782 229.345 132.108 C 229.758 131.531 230.05 130.79 230.198 129.97 Z" stroke-linecap="round" />
</g>
		<g transform="matrix(1 0 0 1 63.26 46.69)"  >
<path style="stroke: rgb(49,100,116); stroke-width: 1; stroke-dasharray: none; stroke-linecap: butt; stroke-dashoffset: 0; stroke-linejoin: miter; stroke-miterlimit: 4; fill: rgb(238,250,246); fill-rule: nonzero; opacity: 1;" vector-effect="non-scaling-stroke"  transform=" translate(-214.76, -132.69)" d="M 230.367 129.051 L 300.275 124.175 L 300.533 127.851 C 300.591 128.681 299.964 129.403 299.13 129.461 L 130.858 141.196 C 130.025 141.254 129.303 140.627 129.245 139.797 L 128.987 136.121 L 198.896 131.245 C 199.485 132.391 200.709 133.147 202.084 133.051 L 227.462 131.281 C 228.836 131.185 229.943 130.268 230.367 129.051 Z" stroke-linecap="round" />
</g>
		<g transform="matrix(1 -0.07 0.07 1 59.16 -2.45)"  >
<ellipse style="stroke: rgb(49,100,116); stroke-width: 1; stroke-dasharray: none; stroke-linecap: butt; stroke-dashoffset: 0; stroke-linejoin: miter; stroke-miterlimit: 4; fill: rgb(66,203,165); fill-rule: nonzero; opacity: 1;" vector-effect="non-scaling-stroke"  cx="0" cy="0" rx="15.9969" ry="15.9971" />
</g>
		<g transform="matrix(1 0 0 1 58.6 -2.16)"  >
<path style="stroke: rgb(49,100,116); stroke-width: 1; stroke-dasharray: none; stroke-linecap: butt; stroke-dashoffset: 0; stroke-linejoin: miter; stroke-miterlimit: 4; fill: rgb(255,255,255); fill-rule: nonzero; opacity: 1;" vector-effect="non-scaling-stroke"  transform=" translate(-210.1, -83.84)" d="M 208.184 87.1094 L 204.777 84.3593 C 204.777 84.359 204.776 84.3587 204.776 84.3583 C 203.957 83.6906 202.744 83.8012 202.061 84.6073 C 201.374 85.4191 201.486 86.6265 202.31 87.2997 L 202.312 87.3011 L 207.389 91.4116 C 207.389 91.4119 207.389 91.4121 207.389 91.4124 C 208.278 92.1372 209.611 91.9373 210.242 90.9795 L 218.283 78.77 C 218.868 77.8813 218.608 76.6968 217.71 76.127 C 216.817 75.5606 215.624 75.8109 215.043 76.6939 L 208.184 87.1094 Z" stroke-linecap="round" />
</g>
</g>
</g>
</svg>