<?xml version="1.0" encoding="UTF-8" standalone="no" ?>
<!DOCTYPE svg PUBLIC "-//W3C//DTD SVG 1.1//EN" "http://www.w3.org/Graphics/SVG/1.1/DTD/svg11.dtd">
<svg xmlns="http://www.w3.org/2000/svg" xmlns:xlink="http://www.w3.org/1999/xlink" version="1.1" width="1080" height="1080" viewBox="0 0 1080 1080" xml:space="preserve">
<desc>Created with Fabric.js 5.2.4</desc>
<defs>
</defs>
<g transform="matrix(1 0 0 1 540 540)" id="f9f53de4-55e5-4876-8253-55bf9bec0d88"  >
<rect style="stroke: none; stroke-width: 1; stroke-dasharray: none; stroke-linecap: butt; stroke-dashoffset: 0; stroke-linejoin: miter; stroke-miterlimit: 4; fill: rgb(255,255,255); fill-rule: nonzero; opacity: 1; visibility: hidden;" vector-effect="non-scaling-stroke"  x="-540" y="-540" rx="0" ry="0" width="1080" height="1080" />
</g>
<g transform="matrix(1 0 0 1 540 540)" id="b6062442-0668-4a55-a461-06f82ff80a52"  >
</g>
<g transform="matrix(27.69 0 0 27.69 539.96 539.96)"  >
<g style=""   >
		<g transform="matrix(1 0 0 1 -0.05 -0.2)"  >
<path style="stroke: none; stroke-width: 1; stroke-dasharray: none; stroke-linecap: butt; stroke-dashoffset: 0; stroke-linejoin: miter; stroke-miterlimit: 4; fill: rgb(0,230,118); fill-rule: nonzero; opacity: 1;" vector-effect="non-scaling-stroke"  transform=" translate(-19.45, -19.3)" d="M 10.7 32.8 L 11.299999999999999 33.099999999999994 C 13.799999999999999 34.599999999999994 16.599999999999998 35.3 19.4 35.3 C 28.2 35.3 35.4 28.099999999999998 35.4 19.299999999999997 C 35.4 15.099999999999998 33.699999999999996 10.999999999999996 30.7 7.9999999999999964 C 27.700000000000003 4.9999999999999964 23.7 3.2999999999999963 19.4 3.2999999999999963 C 10.599999999999998 3.2999999999999963 3.3999999999999986 10.499999999999996 3.4999999999999982 19.4 C 3.4999999999999982 22.4 4.399999999999999 25.299999999999997 5.899999999999999 27.799999999999997 L 6.299999999999999 28.4 L 4.699999999999999 34.3 L 10.7 32.8 z" stroke-linecap="round" />
</g>
		<g transform="matrix(1 0 0 1 -0.15 0)"  >
<path style="stroke: none; stroke-width: 1; stroke-dasharray: none; stroke-linecap: butt; stroke-dashoffset: 0; stroke-linejoin: miter; stroke-miterlimit: 4; fill: rgb(255,255,255); fill-rule: nonzero; opacity: 1;" vector-effect="non-scaling-stroke"  transform=" translate(-19.35, -19.5)" d="M 32.4 6.4 C 29 2.9 24.3 1 19.5 1 C 9.3 1 1.1 9.3 1.2 19.4 C 1.2 22.599999999999998 2.1 25.7 3.5999999999999996 28.5 L 1 38 L 10.7 35.5 C 13.399999999999999 37 16.4 37.7 19.4 37.7 C 29.5 37.7 37.7 29.400000000000002 37.7 19.300000000000004 C 37.7 14.400000000000004 35.800000000000004 9.800000000000004 32.400000000000006 6.400000000000004 z M 19.5 34.6 C 16.8 34.6 14.1 33.9 11.8 32.5 L 11.200000000000001 32.2 L 5.400000000000001 33.7 L 6.9 28 L 6.5 27.4 C 2.0999999999999996 20.299999999999997 4.2 10.899999999999999 11.4 6.5 C 18.6 2.1000000000000014 27.9 4.2 32.3 11.4 C 36.699999999999996 18.6 34.599999999999994 27.9 27.4 32.3 C 25.099999999999998 33.8 22.299999999999997 34.599999999999994 19.5 34.599999999999994 z M 28.3 23.5 L 27.2 23 C 27.2 23 25.599999999999998 22.3 24.599999999999998 21.8 C 24.499999999999996 21.8 24.4 21.7 24.299999999999997 21.7 C 23.999999999999996 21.7 23.799999999999997 21.8 23.599999999999998 21.9 C 23.599999999999998 21.9 23.499999999999996 22 22.099999999999998 23.599999999999998 C 21.999999999999996 23.799999999999997 21.799999999999997 23.9 21.599999999999998 23.9 L 21.499999999999996 23.9 C 21.399999999999995 23.9 21.199999999999996 23.799999999999997 21.099999999999998 23.7 L 20.599999999999998 23.5 C 19.499999999999996 23 18.499999999999996 22.4 17.7 21.6 C 17.5 21.400000000000002 17.2 21.200000000000003 17 21 C 16.3 20.3 15.6 19.5 15.1 18.6 L 15 18.400000000000002 C 14.9 18.3 14.9 18.200000000000003 14.8 18.000000000000004 C 14.8 17.800000000000004 14.8 17.600000000000005 14.9 17.500000000000004 C 14.9 17.500000000000004 15.3 17.000000000000004 15.6 16.700000000000003 C 15.799999999999999 16.500000000000004 15.9 16.200000000000003 16.1 16.000000000000004 C 16.3 15.700000000000003 16.400000000000002 15.300000000000004 16.3 15.000000000000004 C 16.2 14.500000000000004 15 11.800000000000004 14.700000000000001 11.200000000000003 C 14.500000000000002 10.900000000000002 14.3 10.800000000000002 14.000000000000002 10.700000000000003 L 12.900000000000002 10.700000000000003 C 12.700000000000003 10.700000000000003 12.500000000000002 10.800000000000002 12.300000000000002 10.800000000000002 L 12.200000000000003 10.900000000000002 C 12.000000000000004 11.000000000000002 11.800000000000002 11.200000000000003 11.600000000000003 11.300000000000002 C 11.400000000000004 11.500000000000002 11.300000000000002 11.700000000000003 11.100000000000003 11.900000000000002 C 10.400000000000004 12.800000000000002 10.000000000000004 13.900000000000002 10.000000000000004 15.000000000000002 C 10.000000000000004 15.800000000000002 10.200000000000003 16.6 10.500000000000004 17.3 L 10.600000000000003 17.6 C 11.500000000000004 19.5 12.700000000000003 21.200000000000003 14.300000000000004 22.700000000000003 L 14.700000000000005 23.1 C 15.000000000000005 23.400000000000002 15.300000000000004 23.6 15.500000000000005 23.900000000000002 C 17.600000000000005 25.700000000000003 20.000000000000007 27.000000000000004 22.700000000000006 27.700000000000003 C 23.000000000000007 27.800000000000004 23.400000000000006 27.800000000000004 23.700000000000006 27.900000000000002 L 24.700000000000006 27.900000000000002 C 25.200000000000006 27.900000000000002 25.800000000000008 27.700000000000003 26.200000000000006 27.500000000000004 C 26.500000000000007 27.300000000000004 26.700000000000006 27.300000000000004 26.900000000000006 27.100000000000005 L 27.100000000000005 26.900000000000006 C 27.300000000000004 26.700000000000006 27.500000000000004 26.600000000000005 27.700000000000006 26.400000000000006 C 27.90000000000001 26.200000000000006 28.100000000000005 26.000000000000007 28.200000000000006 25.800000000000004 C 28.400000000000006 25.400000000000006 28.500000000000007 24.900000000000006 28.600000000000005 24.400000000000006 L 28.600000000000005 23.700000000000006 C 28.600000000000005 23.700000000000006 28.500000000000004 23.600000000000005 28.300000000000004 23.500000000000007 z" stroke-linecap="round" />
</g>
</g>
</g>
</svg>